# xmcd
#
# Track frame offsets:
#	150
#	25617
#	35308
#	47256
#	61146
#	78339
#	95449
#	118917
#	136970
#	157746
#	167433
#	182748
#
# Disc length: 2677 seconds
#
# Revision: 1
# Processed by: cddbd v1.5.2PL0 Copyright (c) Steve Scherf et al.
# Submitted via: audiograbber 1.83.01
#
DISCID=830a730c
DTITLE=Denver John - Greatest Hits
DYEAR=2008
DGENRE=Country
TTITLE0=flying for me
TTITLE1=i guess he´d rather be in colorado
TTITLE2=it amazes me
TTITLE3=rocky mountain suite
TTITLE4=i want to live
TTITLE5=come and let me look in your eyes
TTITLE6=sunshine on my shoulders
TTITLE7=looking for space
TTITLE8=thirsty boots
TTITLE9=the eagle and the hawk
TTITLE10=whispering jesse
TTITLE11=windsong
EXTD=
EXTT0=
EXTT1=
EXTT2=
EXTT3=
EXTT4=
EXTT5=
EXTT6=
EXTT7=
EXTT8=
EXTT9=
EXTT10=
EXTT11=
PLAYORDER=
